<svg xmlns="http://www.w3.org/2000/svg" viewBox="0 0 16 14"><defs><style>.cls-1{fill:#fc6;}</style></defs><g id="Layer_2" data-name="Layer 2"><g id="Layer_1-2" data-name="Layer 1"><path class="cls-1" d="M14.25,2H7.5a.23.23,0,0,1-.2-.1L6.4.7A1.75,1.75,0,0,0,5,0H1.75A1.75,1.75,0,0,0,0,1.75v10.5A1.75,1.75,0,0,0,1.75,14h12.5A1.75,1.75,0,0,0,16,12.25V3.75A1.75,1.75,0,0,0,14.25,2Zm.22,9.69a.79.79,0,0,1-.79.79H2.31a.79.79,0,0,1-.79-.79V4.32a.79.79,0,0,1,.79-.79H13.68a.79.79,0,0,1,.79.79Z"/></g></g></svg>